<svg xmlns="http://www.w3.org/2000/svg" viewBox="0 0 24 24">
  <path d="M12 3C7.7 3 3.77 4.62 0.79 7.29a1.1 1.1 0 1 0 1.47 1.64A15.8 15.8 0 0 1 12 5.2c3.74 0 7.16 1.3 9.74 3.73a1.1 1.1 0 1 0 1.47-1.64A18 18 0 0 0 12 3Z"/>
  <path d="M12 8.6c-2.93 0-5.6 1.05-7.68 2.79a1.1 1.1 0 1 0 1.41 1.69A9.8 9.8 0 0 1 12 10.8c2.36 0 4.52.83 6.21 2.21a1.1 1.1 0 1 0 1.4-1.69A12 12 0 0 0 12 8.6Z"/>
  <path d="M12 14.3c-1.55 0-2.97.55-4.08 1.46a1.1 1.1 0 1 0 1.39 1.7c.74-.6 1.67-.96 2.69-.96s1.95.36 2.69.96a1.1 1.1 0 1 0 1.39-1.7A6.45 6.45 0 0 0 12 14.3Z"/>
  <circle cx="12" cy="19.8" r="1.5"/>
</svg>
